<?xml version="1.0" standalone="no"?>
<!DOCTYPE svg PUBLIC "-//W3C//DTD SVG 20010904//EN"
 "http://www.w3.org/TR/2001/REC-SVG-20010904/DTD/svg10.dtd">
<svg version="1.0" xmlns="http://www.w3.org/2000/svg"
 width="425.000000pt" height="425.000000pt" viewBox="0 0 425.000000 425.000000"
 preserveAspectRatio="xMidYMid meet">
<metadata>
Created by potrace 1.11, written by Peter Selinger 2001-2013
</metadata>
<g transform="translate(0.000000,425.000000) scale(0.100000,-0.100000)"
fill="#000000" stroke="none">
<path d="M1912 3704 c-72 -15 -214 -60 -326 -103 -109 -42 -311 -157 -390
-222 -79 -65 -116 -99 -201 -184 -169 -169 -284 -334 -378 -542 -52 -116 -92
-255 -112 -388 -3 -22 -9 -65 -14 -95 -13 -83 -11 -284 4 -387 8 -50 26 -129
41 -175 15 -46 27 -84 26 -85 -1 -2 21 -47 47 -100 27 -54 58 -119 69 -144 52
-114 251 -324 403 -425 55 -36 135 -91 177 -121 97 -71 213 -126 330 -157 125
-33 364 -37 500 -7 274 60 530 234 720 490 69 93 82 133 58 180 -16 29 -15 34
10 93 97 230 130 451 84 555 -12 27 -35 86 -52 133 -72 202 -176 344 -343 468
-214 158 -504 222 -764 167 -31 -7 -98 -33 -152 -60 -144 -72 -265 -182 -356
-323 -30 -45 -58 -80 -62 -77 -22 13 66 243 119 310 4 6 11 25 15 44 10 45 -7
34 -49 -33 -54 -84 -103 -228 -141 -411 -14 -65 -14 -310 -1 -378 11 -60 11
-67 -1 -54 -8 8 -30 52 -49 98 -32 80 -33 88 -29 184 3 55 7 118 9 140 8 65
16 119 20 141 2 12 7 37 10 55 18 115 80 217 237 388 170 187 337 269 609 300
137 15 295 7 406 -22 219 -56 393 -143 574 -287 198 -156 352 -343 421 -509
17 -42 42 -99 55 -128 98 -213 182 -605 188 -875 1 -62 8 -77 29 -60 14 12 14
56 2 207 -15 197 -32 283 -80 423 -19 55 -39 127 -44 159 -14 85 -35 143 -106
288 -134 275 -265 414 -622 659 -188 129 -377 217 -506 236 -29 4 -45 9 -37
10 30 4 96 -1 135 -12 22 -5 51 -12 65 -15 62 -11 244 -79 340 -126 233 -116
468 -303 617 -489 56 -71 132 -193 157 -253 8 -19 31 -62 50 -95 20 -33 42
-85 50 -116 18 -68 29 -82 51 -64 8 7 15 18 15 24 0 25 -103 352 -115 366 -7
8 -31 51 -53 95 -79 155 -162 260 -322 408 -119 109 -193 163 -295 213 -44 21
-107 61 -140 87 -33 27 -88 65 -122 85 -34 20 -61 37 -59 39 1 2 47 -12 102
-31 103 -35 212 -86 277 -130 21 -14 40 -26 43 -26 9 0 200 -134 264 -186 111
-90 175 -154 270 -274 19 -25 44 -54 56 -65 71 -70 206 -303 267 -460 56 -142
60 -150 81 -142 23 9 21 24 -20 156 -120 383 -257 604 -557 894 -174 168 -351
279 -607 380 -114 44 -208 71 -285 81 -22 3 -60 8 -85 11 -25 3 -61 8 -81 11
-86 11 -341 5 -429 -11 -14 -3 -38 -7 -55 -9 -16 -2 -50 -8 -75 -11 -78 -13
-343 -122 -437 -181 -129 -81 -186 -127 -304 -244 -119 -118 -165 -177 -236
-300 -86 -149 -145 -306 -173 -460 -6 -30 -12 -64 -14 -75 -22 -111 -23 -345
-3 -440 8 -39 31 -112 50 -163 19 -51 31 -92 27 -92 -19 0 -74 152 -101 282
-27 127 -34 362 -14 488 41 267 158 534 344 785 169 226 348 375 596 495 153
74 249 105 468 151 55 12 87 32 73 46 -12 12 -100 11 -164 -3z m242 -1175
c141 -33 296 -122 412 -237 120 -119 170 -198 219 -347 49 -150 52 -316 10
-479 -35 -135 -156 -325 -290 -459 -65 -64 -189 -140 -248 -151 -38 -7 -26 7
25 29 87 38 242 175 331 295 58 76 130 223 147 300 7 30 16 69 20 86 4 17 8
83 8 145 0 99 -4 126 -29 203 -89 271 -329 494 -581 542 -56 10 -195 12 -245
3 -84 -15 -186 -58 -238 -99 -27 -22 -57 -43 -66 -46 -8 -3 -24 -19 -33 -36
-10 -16 -31 -44 -46 -61 -63 -72 -110 -231 -106 -354 6 -154 89 -277 235 -346
143 -68 285 -42 367 67 39 51 48 86 34 134 -14 50 -32 71 -69 82 -26 7 -36 5
-51 -10 -25 -25 -17 -44 23 -56 44 -13 47 -46 8 -104 -43 -65 -82 -85 -162
-84 -189 3 -314 158 -305 378 7 152 92 290 228 370 88 52 279 84 383 65 60
-10 250 -104 320 -157 131 -99 217 -300 219 -512 1 -105 -7 -158 -34 -234 -85
-246 -293 -443 -557 -531 -29 -9 -62 -18 -75 -20 -13 -2 -41 -6 -63 -10 -109
-20 -272 -8 -404 31 -126 36 -316 148 -432 254 -41 37 -102 121 -94 128 3 3
46 -35 98 -84 103 -99 169 -146 285 -204 144 -72 238 -94 402 -94 371 0 671
226 760 574 26 98 33 221 18 300 -15 83 -22 88 -105 64 -19 -5 -23 0 -33 35
-10 40 -56 113 -112 179 -60 71 -138 101 -183 69 -17 -13 -12 -20 60 -92 87
-88 120 -148 133 -243 5 -34 6 -62 3 -62 -3 0 -23 26 -43 58 -44 68 -118 142
-173 172 -48 27 -135 32 -180 10 -62 -31 -102 -141 -56 -153 22 -5 45 15 55
49 10 33 51 65 82 66 100 1 215 -132 216 -250 1 -190 -202 -379 -416 -388
-191 -7 -393 112 -469 276 -46 100 -52 136 -51 280 0 92 5 128 23 180 32 92
110 217 180 286 162 163 431 243 645 193z m161 -926 c-20 -110 -112 -226 -226
-288 -71 -37 -199 -72 -199 -54 0 5 11 9 24 9 14 0 27 4 30 9 3 4 19 11 36 14
124 25 249 148 296 290 21 65 23 69 36 61 6 -4 7 -21 3 -41z m-1473 -305 c25
-29 66 -81 92 -116 32 -43 73 -79 129 -117 45 -30 98 -69 117 -88 19 -18 61
-52 93 -76 31 -24 57 -46 57 -48 0 -9 -175 89 -215 121 -111 86 -179 151 -234
220 -52 67 -104 156 -91 156 5 0 28 -24 52 -52z m1372 -458 c-12 -12 -64 -24
-64 -15 0 7 40 24 60 24 10 1 11 -2 4 -9z"/>
<path d="M2068 3665 c-4 -5 -43 -13 -65 -14 -7 -1 -13 -5 -13 -11 0 -19 119
-6 123 14 2 9 -37 19 -45 11z"/>
<path d="M639 2937 c-40 -50 -59 -91 -101 -227 -22 -69 -55 -174 -74 -235 -54
-168 -72 -301 -69 -490 3 -151 7 -205 20 -265 3 -14 8 -38 11 -55 11 -65 68
-235 112 -330 113 -248 263 -434 447 -554 81 -53 90 -57 99 -42 11 17 -4 36
-61 76 -84 59 -127 100 -207 195 -185 219 -317 495 -362 761 -19 108 -24 303
-11 417 23 210 143 590 223 708 45 66 22 102 -27 41z"/>
<path d="M1870 2935 c-30 -7 -71 -18 -90 -26 -44 -16 -174 -94 -214 -128 -86
-74 -108 -96 -118 -115 -6 -12 14 2 44 31 53 49 157 122 225 156 76 40 229 74
337 76 16 1 26 4 23 7 -12 12 -151 11 -207 -1z"/>
</g>
</svg>
